<svg xmlns="http://www.w3.org/2000/svg" version="1.1" xmlns:xlink="http://www.w3.org/1999/xlink" xmlns:svgjs="http://svgjs.com/svgjs" width="1440" height="560" preserveAspectRatio="none" viewBox="0 0 1440 560"><g mask="url(&quot;#SvgjsMask1361&quot;)" fill="none"><rect width="1440" height="560" x="0" y="0" fill="rgba(9, 2, 89, 1)"></rect><path d="M449.58237999201543 551.8353480432361L484.2778256967804 422.3501818818056 354.7926595353499 387.6547361770406 320.0972138305849 517.1399023384711z" fill="rgba(22, 0, 255, 0.94)" class="triangle-float1"></path><path d="M838.902,488.535C866.875,488.974,890.247,469.979,904.643,445.992C919.545,421.163,928.014,390.012,912.832,365.353C898.145,341.497,866.916,338.972,838.902,339.212C811.46,339.448,781.158,343.012,767.139,366.604C752.911,390.548,762.517,419.978,776.644,443.981C790.518,467.553,811.553,488.105,838.902,488.535" fill="rgba(22, 0, 255, 0.94)" class="triangle-float1"></path><path d="M1435.5552311043991 273.0835659324463L1487.7406310928645 161.17161450762288 1375.828679668041 108.98621451915756 1323.6432796795757 220.89816594398093z" fill="rgba(22, 0, 255, 0.94)" class="triangle-float3"></path><path d="M1198.3519992251727 476.91094282384745L1296.206029402359 397.6703116025796 1119.1113680039048 379.0569126466611z" fill="rgba(22, 0, 255, 0.94)" class="triangle-float2"></path><path d="M1127.9021769757876 157.46701855517236L1265.6158582201413 236.97604949269424 1345.1248891576631 99.26236824834065 1207.4112079133095 19.75333731081875z" fill="rgba(22, 0, 255, 0.94)" class="triangle-float1"></path><path d="M981.154193881636 130.68388496362087L923.6587325172253 26.959326950860913 819.9341745044654 84.4547883152716 877.4296358688761 188.17934632803156z" fill="rgba(22, 0, 255, 0.94)" class="triangle-float2"></path><path d="M465.199,411.886C499.258,412.121,531.515,396.336,549.535,367.433C568.679,336.728,575.126,297.03,555.935,266.355C537.592,237.036,499.783,232.671,465.199,232.628C430.512,232.585,392.265,236.597,374.071,266.129C355.231,296.709,363.817,335.825,382.858,366.281C400.685,394.795,431.572,411.654,465.199,411.886" fill="rgba(22, 0, 255, 0.94)" class="triangle-float3"></path><path d="M1107.1725027964126 272.2381902588205L1129.49511069221 431.0717986052308 1288.3287190386202 408.7491907094335 1266.0061111428229 249.91558236302322z" fill="rgba(22, 0, 255, 0.94)" class="triangle-float1"></path><path d="M490.9860399320561 396.4046630405173L394.94100248588404 293.40897013009345 387.99034702163226 492.4497004866893z" fill="rgba(22, 0, 255, 0.94)" class="triangle-float3"></path><path d="M8.6597891955424 30.327349606190026L31.394179727502213 173.866642262565 152.19908185191736 7.592959074230215z" fill="rgba(22, 0, 255, 0.94)" class="triangle-float2"></path></g><defs><mask id="SvgjsMask1361"><rect width="1440" height="560" fill="#ffffff"></rect></mask><style>
            @keyframes float1 {
                0%{transform: translate(0, 0)}
                50%{transform: translate(-10px, 0)}
                100%{transform: translate(0, 0)}
            }

            .triangle-float1 {
                animation: float1 5s infinite;
            }

            @keyframes float2 {
                0%{transform: translate(0, 0)}
                50%{transform: translate(-5px, -5px)}
                100%{transform: translate(0, 0)}
            }

            .triangle-float2 {
                animation: float2 4s infinite;
            }

            @keyframes float3 {
                0%{transform: translate(0, 0)}
                50%{transform: translate(0, -10px)}
                100%{transform: translate(0, 0)}
            }

            .triangle-float3 {
                animation: float3 6s infinite;
            }
        </style></defs></svg>